<?xml version="1.0" encoding="utf-8"?>
<!-- Generator: Adobe Illustrator 23.0.1, SVG Export Plug-In . SVG Version: 6.00 Build 0)  -->
<svg version="1.1" id="Layer_1" xmlns="http://www.w3.org/2000/svg" xmlns:xlink="http://www.w3.org/1999/xlink" x="0px" y="0px"
	 viewBox="0 0 150 50" style="enable-background:new 0 0 150 50;" xml:space="preserve">
<style type="text/css">
	.st0{fill:#4678BC;}
	.st1{fill:#3E8ECC;}
	.st2{fill:#40B2CB;}
	.st3{fill:#54BC79;}
	.st4{fill:#79B754;}
	.st5{fill:#B0B754;}
	.st6{fill:#B59854;}
	.st7{fill:none;stroke:#79B754;stroke-width:2;stroke-miterlimit:10;}
	.st8{fill:none;stroke:#79B754;stroke-width:2.5;stroke-miterlimit:10;}
	.st9{fill:none;stroke:#000000;stroke-miterlimit:10;}
	.st10{fill:#FFFFFF;}
</style>
<g>
	<g>
		<path class="st0" d="M9.41,34.29H6.77V15.5h2.64V34.29z"/>
		<path class="st1" d="M14.06,15.5h2.39l9.19,14.53l-0.31,0.34V15.5h2.61v18.78h-2.42l-9.16-14.31l0.31-0.34v14.64h-2.61V15.5z"/>
		<path class="st2" d="M36.89,34.49c0,0-0.41-0.09-1.22-0.26c-0.81-0.17-1.57-0.43-2.27-0.78c-0.7-0.34-1.36-0.78-1.97-1.29
			l1.64-2.02c0.72,0.62,1.5,1.09,2.37,1.4s1.8,0.47,2.81,0.47c1.36,0,2.42-0.25,3.17-0.76c0.75-0.5,1.12-1.22,1.12-2.14V29.1
			c0-0.65-0.17-1.17-0.51-1.56c-0.34-0.38-0.78-0.67-1.32-0.85s-1.23-0.36-2.09-0.51c-0.03-0.01-0.05-0.01-0.08-0.01
			s-0.06,0-0.08-0.01l-0.19-0.04c-1.26-0.22-2.28-0.46-3.07-0.73c-0.79-0.27-1.46-0.77-2.02-1.49c-0.56-0.72-0.84-1.74-0.84-3.07
			v-0.01c0-1.16,0.26-2.16,0.78-2.98c0.52-0.82,1.28-1.45,2.28-1.88s2.2-0.65,3.61-0.65c0.67,0,1.33,0.07,1.98,0.22
			c0.65,0.15,1.29,0.36,1.93,0.65c0.63,0.29,1.26,0.65,1.87,1.09l-1.5,2.09c-0.72-0.53-1.43-0.92-2.14-1.18s-1.42-0.39-2.14-0.39
			c-1.28,0-2.28,0.26-2.99,0.77s-1.07,1.24-1.07,2.18v0.01c0,0.65,0.18,1.15,0.55,1.53s0.82,0.64,1.37,0.82s1.31,0.36,2.28,0.55
			c0.03,0.01,0.07,0.02,0.1,0.02c0.03,0,0.06,0.01,0.1,0.02c0.04,0.01,0.09,0.02,0.14,0.03s0.1,0.02,0.14,0.03
			c1.14,0.23,2.09,0.51,2.85,0.83s1.4,0.83,1.91,1.54c0.51,0.71,0.77,1.68,0.77,2.91v0.03c0,1.15-0.27,2.13-0.81,2.94
			c-0.54,0.81-1.33,1.43-2.36,1.86c-1.03,0.43-2.27,0.64-3.73,0.64C37.34,34.49,36.89,34.49,36.89,34.49z"/>
		<path class="st3" d="M48.9,15.5h2.64v18.79H48.9V15.5z M50.25,24.5h6.01c0.57,0,1.07-0.13,1.5-0.4c0.43-0.27,0.76-0.65,1-1.14
			s0.36-1.06,0.36-1.69c0-0.65-0.12-1.22-0.36-1.71s-0.57-0.87-1-1.14c-0.43-0.27-0.93-0.41-1.5-0.41h-6.01V15.5h5.92
			c1.12,0,2.11,0.24,2.96,0.72c0.85,0.48,1.51,1.15,1.98,2.02c0.47,0.87,0.7,1.88,0.7,3.02s-0.23,2.15-0.7,3.02
			c-0.47,0.87-1.13,1.54-1.98,2.01C58.28,26.77,57.29,27,56.17,27h-5.92V24.5z"/>
		<path class="st4" d="M97.05,15.49h2.64v18.81h-2.64V15.49z M98.2,23.84h6.41c0.5,0,0.94-0.12,1.33-0.36
			c0.39-0.24,0.69-0.58,0.9-1.03c0.21-0.44,0.32-0.95,0.32-1.53s-0.11-1.09-0.32-1.53c-0.21-0.44-0.51-0.79-0.89-1.03
			c-0.38-0.24-0.83-0.36-1.34-0.36H98.2v-2.51h6.31c1.09,0,2.04,0.22,2.86,0.67c0.82,0.45,1.46,1.08,1.91,1.91
			c0.45,0.82,0.68,1.77,0.68,2.85s-0.23,2.03-0.69,2.85c-0.46,0.82-1.1,1.46-1.92,1.91c-0.82,0.45-1.77,0.67-2.85,0.67H98.2V23.84z
			 M103.32,25.76l2.62-0.59l4.81,9.12h-3.13L103.32,25.76z"/>
		<path class="st5" d="M114.3,15.5h2.64v18.79h-2.64V15.5z M115.58,15.5h10.79v2.51h-10.79V15.5z M115.58,23.71h9.37v2.51h-9.37
			V23.71z M115.58,31.79h10.79v2.51h-10.79V31.79z"/>
		<path class="st6" d="M130.12,15.5h2.64v18.79h-2.64V15.5z M131.91,31.79h4.25c1.39,0,2.46-0.36,3.23-1.08
			c0.76-0.72,1.14-1.73,1.14-3.04v-5.53c0-1.31-0.38-2.32-1.14-3.04c-0.76-0.72-1.84-1.08-3.23-1.08h-4.25V15.5h4.18
			c1.51,0,2.8,0.26,3.86,0.79c1.07,0.53,1.88,1.29,2.44,2.3c0.56,1.01,0.84,2.22,0.84,3.65v5.32c0,1.42-0.28,2.64-0.84,3.65
			c-0.56,1.01-1.38,1.78-2.45,2.3s-2.36,0.79-3.87,0.79h-4.16V31.79z"/>
	</g>
	<g>
		<path class="st7" d="M79.86,16.9c-3.52,0-6.38,2.86-6.38,6.38c0,3.52,2.86,6.38,6.38,6.38c3.52,0,6.38-2.86,6.38-6.38
			C86.24,19.76,83.38,16.9,79.86,16.9z"/>
		<path class="st8" d="M66.43,23.11c15.52,15.16,26.63-0.06,26.63-0.06C79.13,8.52,66.43,23.11,66.43,23.11z"/>
		<path class="st4" d="M82.04,22.93c-0.92,0-1.67-0.75-1.67-1.67c0-0.63,0.37-1.16,0.89-1.45c-0.43-0.19-0.9-0.29-1.4-0.29
			c-1.96,0-3.55,1.59-3.55,3.55c0,1.96,1.59,3.55,3.55,3.55c1.96,0,3.55-1.59,3.55-3.55c0-0.26-0.03-0.52-0.09-0.77
			C83.01,22.68,82.56,22.93,82.04,22.93z"/>
	</g>
	<ellipse class="st4" cx="79.81" cy="33.69" rx="9.44" ry="1"/>
</g>
</svg>
